# xmcd CD database file
#
# Track frame offsets:
#	150
#	10960
#	18752
#	32837
#	40910
#	50997
#	65720
#	86987
#	105210
#	111565
#	136332
#	148330
#	162877
#	171815
#
# Disc length: 2588 seconds
#
# Revision: 4
# Processed by: cddbd v1.5.2PL0 Copyright (c) Steve Scherf et al.
# Submitted via: CDex 1.70beta3
#
DISCID=c70a1a0e
DTITLE=ザ・クロマニヨンズ - ザ・クロマニヨンズ
DYEAR=2006
DGENRE=Rock and Roll
TTITLE0=キラービー
TTITLE1=エレキギター
TTITLE2=連結器よ永遠に
TTITLE3=グレート
TTITLE4=やわらかい
TTITLE5=あさくらさんしょ
TTITLE6=草原の輝き
TTITLE7=歩くチブ
TTITLE8=くじらなわ
TTITLE9=夢のロッケンロール・ドリーム
TTITLE10=くま
TTITLE11=タリホー
TTITLE12=まーまーま
TTITLE13=土星にやさしく
EXTD=YEAR: 2006
EXTT0=
EXTT1=
EXTT2=
EXTT3=
EXTT4=
EXTT5=
EXTT6=
EXTT7=
EXTT8=
EXTT9=
EXTT10=
EXTT11=
EXTT12=
EXTT13=
PLAYORDER=
